<svg xmlns="http://www.w3.org/2000/svg" xmlns:xlink="http://www.w3.org/1999/xlink" id="Layer_1" x="0px" y="0px" viewBox="0 0 240 240" style="enable-background:new 0 0 240 240;" xml:space="preserve">
<style type="text/css">
	.st0{fill:#3756EF;}
	.st1{fill:#FFFFFF;}
	.st2{fill:#31FFF0;}
</style>
<g id="XMLID_1991_">
	<g id="XMLID_2008_">
		<circle id="XMLID_2009_" class="st0" cx="120" cy="120" r="120"></circle>
	</g>
	<g id="XMLID_2004_">
		<path id="XMLID_2005_" class="st1" d="M166.69,186.2H73.31c-3.63,0-6.56-2.94-6.56-6.56V60.46c0-3.63,2.94-6.56,6.56-6.56h93.37    c3.63,0,6.56,2.94,6.56,6.56v119.17C173.25,183.26,170.31,186.2,166.69,186.2z M79.88,173.07h80.25V67.02H79.88V173.07z"></path>
	</g>
	<g id="XMLID_2002_">
		<path id="XMLID_2003_" class="st2" d="M98.86,105.72c-1.17,0-2.35-0.45-3.24-1.34L88.3,97.1c-1.79-1.79-1.81-4.7-0.01-6.5    c1.79-1.78,4.7-1.79,6.5-0.01l4.06,4.04l14.15-14.16c1.79-1.79,4.7-1.79,6.5,0c1.79,1.79,1.79,4.7,0.01,6.5l-17.39,17.41    C101.22,105.27,100.04,105.72,98.86,105.72z"></path>
	</g>
	<g id="XMLID_2000_">
		<path id="XMLID_2001_" class="st1" d="M98.86,133.31c-1.17,0-2.35-0.45-3.24-1.34l-7.32-7.28c-1.79-1.79-1.81-4.7-0.01-6.5    c1.79-1.78,4.7-1.8,6.5-0.01l4.06,4.04l14.15-14.16c1.79-1.79,4.7-1.79,6.5,0c1.79,1.79,1.79,4.7,0.01,6.5l-17.39,17.41    C101.22,132.87,100.04,133.31,98.86,133.31z"></path>
	</g>
	<g id="XMLID_1998_">
		<path id="XMLID_1999_" class="st1" d="M98.86,160.97c-1.17,0-2.35-0.45-3.24-1.34l-7.32-7.28c-1.79-1.79-1.81-4.7-0.01-6.5    c1.79-1.78,4.7-1.79,6.5-0.01l4.06,4.04l14.15-14.16c1.79-1.79,4.7-1.79,6.5,0c1.79,1.79,1.79,4.7,0.01,6.5l-17.39,17.41    C101.22,160.53,100.04,160.97,98.86,160.97z"></path>
	</g>
	<g id="XMLID_1996_">
		<path id="XMLID_1997_" class="st1" d="M149.56,97.02h-18.3c-2.54,0-4.59-2.06-4.59-4.59s2.05-4.59,4.59-4.59h18.3    c2.54,0,4.59,2.06,4.59,4.59S152.1,97.02,149.56,97.02z"></path>
	</g>
	<g id="XMLID_1994_">
		<path id="XMLID_1995_" class="st1" d="M149.56,124.64h-18.3c-2.54,0-4.59-2.06-4.59-4.59s2.05-4.59,4.59-4.59h18.3    c2.54,0,4.59,2.06,4.59,4.59S152.1,124.64,149.56,124.64z"></path>
	</g>
	<g id="XMLID_1992_">
		<path id="XMLID_1993_" class="st1" d="M149.56,152.27h-18.3c-2.54,0-4.59-2.06-4.59-4.59s2.05-4.59,4.59-4.59h18.3    c2.54,0,4.59,2.06,4.59,4.59S152.1,152.27,149.56,152.27z"></path>
	</g>
</g>
</svg>